<?xml version="1.0" standalone="no"?>
<!DOCTYPE svg PUBLIC "-//W3C//DTD SVG 20010904//EN"
 "http://www.w3.org/TR/2001/REC-SVG-20010904/DTD/svg10.dtd">
<svg version="1.0" xmlns="http://www.w3.org/2000/svg"
 width="64.000000pt" height="64.000000pt" viewBox="0 0 64.000000 64.000000"
 preserveAspectRatio="xMidYMid meet">
<metadata>
Created by potrace 1.15, written by Peter Selinger 2001-2017
</metadata>
<g transform="translate(0.000000,64.000000) scale(0.100000,-0.100000)"
fill="#000000" stroke="none">
<path d="M213 599 c-103 -40 -183 -150 -191 -264 -8 -117 71 -237 191 -289 78
-35 140 -34 220 3 77 35 128 88 162 166 102 229 -144 475 -382 384z m190 -55
c88 -30 157 -128 157 -224 0 -139 -137 -258 -272 -236 -121 20 -202 114 -202
236 0 78 25 133 83 181 69 59 147 73 234 43z"/>
<path d="M235 511 c-73 -34 -125 -113 -125 -189 0 -106 105 -212 210 -212 105
0 210 106 210 212 0 49 -23 102 -63 147 -53 58 -157 77 -232 42z m162 -71 c87
-52 83 -198 -6 -245 -123 -63 -251 60 -197 190 29 69 133 98 203 55z"/>
<path d="M244 396 c-48 -48 -48 -104 0 -152 28 -28 42 -34 76 -34 34 0 48 6
76 34 28 28 34 42 34 76 0 60 -50 110 -110 110 -34 0 -48 -6 -76 -34z"/>
</g>
</svg>
