<?xml version="1.0" standalone="no"?>
<!DOCTYPE svg PUBLIC "-//W3C//DTD SVG 20010904//EN"
 "http://www.w3.org/TR/2001/REC-SVG-20010904/DTD/svg10.dtd">
<svg version="1.0" xmlns="http://www.w3.org/2000/svg"
 width="128.000000pt" height="128.000000pt" viewBox="0 0 128.000000 128.000000"
 preserveAspectRatio="xMidYMid meet">
<metadata>
Created by potrace 1.15, written by Peter Selinger 2001-2017
</metadata>
<g transform="translate(0.000000,128.000000) scale(0.100000,-0.100000)"
fill="#000000" stroke="none">
<path d="M533 1270 c-233 -42 -420 -205 -499 -435 -23 -68 -27 -97 -27 -190
-1 -128 14 -191 75 -307 73 -141 201 -248 363 -304 69 -24 96 -28 195 -28 99
0 126 4 195 28 234 81 393 267 432 509 15 88 15 106 0 194 -49 302 -293 522
-594 538 -48 2 -111 0 -140 -5z m252 -65 c105 -28 184 -74 265 -155 118 -118
170 -243 170 -410 0 -167 -52 -292 -170 -410 -117 -117 -244 -170 -410 -170
-201 0 -380 96 -490 263 -121 185 -121 449 0 634 78 118 205 211 341 247 72
20 220 20 294 1z"/>
<path d="M560 1164 c-38 -61 -68 -129 -84 -192 -18 -68 -22 -272 -6 -272 6 0
10 4 10 9 0 21 129 145 193 185 99 61 181 87 301 95 l99 6 -61 57 c-99 91
-243 147 -379 148 -48 0 -53 -2 -73 -36z"/>
<path d="M457 1166 c-37 -13 -90 -38 -117 -56 -61 -39 -157 -142 -189 -202
l-25 -46 35 -59 c66 -112 223 -246 326 -277 l22 -7 -19 38 c-34 71 -53 164
-53 263 0 115 20 198 73 298 20 39 32 72 26 72 -6 0 -41 -11 -79 -24z"/>
<path d="M870 955 c-30 -7 -77 -23 -103 -34 -58 -25 -157 -89 -157 -102 0 -5
15 -9 33 -9 157 0 389 -145 477 -298 19 -34 38 -62 42 -62 15 0 33 112 32 200
-1 105 -27 197 -77 278 l-27 42 -83 -1 c-45 0 -107 -7 -137 -14z"/>
<path d="M98 778 c-7 -29 -13 -96 -12 -148 1 -105 27 -197 77 -277 l27 -43 78
0 c85 0 171 18 245 49 58 25 157 89 157 102 0 5 -15 9 -33 9 -52 0 -146 28
-225 67 -92 45 -205 149 -252 231 -19 34 -38 62 -42 62 -3 0 -12 -24 -20 -52z"/>
<path d="M789 723 c35 -69 54 -162 54 -263 -1 -115 -21 -199 -73 -298 l-38
-73 32 7 c52 11 142 50 188 82 58 40 147 137 177 195 l25 45 -35 59 c-66 113
-223 246 -327 278 l-23 7 20 -39z"/>
<path d="M800 574 c0 -17 -109 -132 -156 -165 -116 -79 -235 -118 -364 -119
l-75 -1 62 -59 c100 -94 259 -155 387 -148 l50 3 43 80 c23 44 49 110 58 147
18 80 22 245 6 261 -7 7 -11 7 -11 1z"/>
</g>
</svg>
