<?xml version="1.0" standalone="no"?>
<!DOCTYPE svg PUBLIC "-//W3C//DTD SVG 20010904//EN"
 "http://www.w3.org/TR/2001/REC-SVG-20010904/DTD/svg10.dtd">
<svg version="1.0" xmlns="http://www.w3.org/2000/svg"
 width="180.000000pt" height="180.000000pt" viewBox="0 0 180.000000 180.000000"
 preserveAspectRatio="xMidYMid meet">
<metadata>
Created by potrace 1.15, written by Peter Selinger 2001-2017
</metadata>
<g transform="translate(0.000000,180.000000) scale(0.100000,-0.100000)"
fill="#000000" stroke="none">
<path d="M705 1711 c-308 -78 -543 -313 -616 -616 -26 -109 -26 -281 0 -390
74 -307 319 -548 629 -619 93 -21 271 -21 364 0 310 71 555 312 629 619 26
109 26 281 0 390 -74 307 -319 548 -629 619 -96 22 -284 20 -377 -3z m320
-296 c277 -72 449 -327 405 -599 -62 -386 -498 -577 -824 -361 -181 120 -274
360 -220 568 49 190 205 346 392 391 77 19 175 19 247 1z"/>
<path d="M764 1272 c-114 -40 -220 -156 -245 -266 -19 -87 -8 -212 25 -280 36
-73 109 -146 183 -183 54 -26 67 -28 173 -28 106 0 119 2 173 28 74 37 147
110 184 184 26 54 28 67 28 173 0 106 -2 119 -28 173 -37 74 -110 147 -184
183 -50 25 -72 29 -158 32 -77 2 -112 -2 -151 -16z"/>
</g>
</svg>
